<svg width="40" height="40" xmlns="http://www.w3.org/2000/svg" fill="none">
 <title>logo</title>
 <defs>
  <clipPath id="a">
   <path id="svg_1" d="m0,0l40,0l0,41l-40,0l0,-41z" fill="#fff"/>
  </clipPath>
 </defs>
 <g>
  <title>Layer 1</title>
  <path id="svg_3" clip-rule="evenodd" d="m13.71501,0.00021c-2.257,0 -4.42,0.896 -6.016,2.492l-7.699,7.699l0,3.524c0,2.49 1.07,4.73 2.774,6.285a8.485,8.485 0 0 0 -2.774,6.286l0,3.524l7.699,7.698a8.507,8.507 0 0 0 12.301,-0.282a8.508,8.508 0 0 0 12.301,0.282l7.699,-7.698l0,-3.524c0,-2.49 -1.07,-4.73 -2.774,-6.286a8.485,8.485 0 0 0 2.774,-6.285l0,-3.524l-7.699,-7.7a8.508,8.508 0 0 0 -12.301,0.283a8.485,8.485 0 0 0 -6.285,-2.774zm12.044,20a8.528,8.528 0 0 1 -0.282,-0.27l-5.477,-5.476l-5.477,5.477a8.528,8.528 0 0 1 -0.282,0.27c0.096,0.087 0.19,0.177 0.282,0.269l5.477,5.476l5.477,-5.476c0.092,-0.093 0.186,-0.182 0.282,-0.27zm-3.537,9.81l0,1.682a4.063,4.063 0 0 0 6.936,2.874l6.398,-6.397l0,-1.683a4.063,4.063 0 0 0 -6.937,-2.874l-6.397,6.398zm-4.444,0l-6.397,-6.398a4.063,4.063 0 0 0 -6.937,2.873l0,1.684l6.397,6.397a4.063,4.063 0 0 0 6.937,-2.873l0,-1.683zm0,-21.302l0,1.683l-6.397,6.397a4.063,4.063 0 0 1 -6.937,-2.873l0,-1.683l6.397,-6.397a4.063,4.063 0 0 1 6.937,2.873zm10.841,8.08l-6.397,-6.397l0,-1.683a4.063,4.063 0 0 1 6.936,-2.873l6.398,6.397l0,1.683a4.063,4.063 0 0 1 -6.937,2.873z" fill-rule="evenodd" fill="#C7231A"/>
 </g>
</svg>